<?xml version="1.0" encoding="UTF-8" standalone="no"?> <svg width="512" height="512" viewBox="0 0 512 512" fill="none" xmlns="http://www.w3.org/2000/svg">
<path d="M496 352C498.122 352 500.157 351.157 501.657 349.657C503.157 348.157 504 346.122 504 344V312C504 309.878 503.157 307.843 501.657 306.343C500.157 304.843 498.122 304 496 304H472V168C472 165.878 471.157 163.843 469.657 162.343C468.157 160.843 466.122 160 464 160H448V120C448 117.878 447.157 115.843 445.657 114.343C444.157 112.843 442.122 112 440 112H392C389.878 112 387.843 112.843 386.343 114.343C384.843 115.843 384 117.878 384 120V160H320C317.878 160 315.843 160.843 314.343 162.343C312.843 163.843 312 165.878 312 168V256H280V120C280 117.878 279.157 115.843 277.657 114.343C276.157 112.843 274.122 112 272 112H184V88C184 85.8783 183.157 83.8434 181.657 82.3431C180.157 80.8429 178.122 80 176 80H80C77.8783 80 75.8434 80.8429 74.3431 82.3431C72.8429 83.8434 72 85.8783 72 88V176H48C45.8783 176 43.8434 176.843 42.3431 178.343C40.8429 179.843 40 181.878 40 184V304H16C13.8783 304 11.8434 304.843 10.3431 306.343C8.84285 307.843 8 309.878 8 312V344C8 346.122 8.84285 348.157 10.3431 349.657C11.8434 351.157 13.8783 352 16 352H40V384H16C13.8783 384 11.8434 384.843 10.3431 386.343C8.84285 387.843 8 389.878 8 392V424C8 426.122 8.84285 428.157 10.3431 429.657C11.8434 431.157 13.8783 432 16 432H496C498.122 432 500.157 431.157 501.657 429.657C503.157 428.157 504 426.122 504 424V392C504 389.878 503.157 387.843 501.657 386.343C500.157 384.843 498.122 384 496 384H472V352H496ZM400 128H432V160H400V128ZM376 176H408V224H376V176ZM328 176H360V232C360 234.122 360.843 236.157 362.343 237.657C363.843 239.157 365.878 240 368 240H416C418.122 240 420.157 239.157 421.657 237.657C423.157 236.157 424 234.122 424 232V176H456V304H328V176ZM280 272H312V304H280V272ZM216 128H232V144H216V128ZM184 128H200V152C200 154.122 200.843 156.157 202.343 157.657C203.843 159.157 205.878 160 208 160H240C242.122 160 244.157 159.157 245.657 157.657C247.157 156.157 248 154.122 248 152V128H264V208H184V128ZM232 224V240H216V224H232ZM184 224H200V248C200 250.122 200.843 252.157 202.343 253.657C203.843 255.157 205.878 256 208 256H240C242.122 256 244.157 255.157 245.657 253.657C247.157 252.157 248 250.122 248 248V224H264V304H184V224ZM120 96H136V112H120V96ZM88 96H104V120C104 122.122 104.843 124.157 106.343 125.657C107.843 127.157 109.878 128 112 128H144C146.122 128 148.157 127.157 149.657 125.657C151.157 124.157 152 122.122 152 120V96H168V176H88V96ZM128 192V224H96V192H128ZM56 192H80V232C80 234.122 80.8429 236.157 82.3431 237.657C83.8434 239.157 85.8783 240 88 240H136C138.122 240 140.157 239.157 141.657 237.657C143.157 236.157 144 234.122 144 232V192H168V304H56V192ZM488 400V416H24V400H488ZM56 384V352H72V384H56ZM88 384V352H232V384H88ZM248 384V352H264V384H248ZM280 384V352H424V384H280ZM440 384V352H456V384H440ZM24 336V320H488V336H24Z" fill="black"/>
</svg>
